<?xml version="1.0" standalone="no"?>
<!DOCTYPE svg PUBLIC "-//W3C//DTD SVG 20010904//EN"
 "http://www.w3.org/TR/2001/REC-SVG-20010904/DTD/svg10.dtd">
<svg version="1.0" xmlns="http://www.w3.org/2000/svg"
 width="481.000000pt" height="519.000000pt" viewBox="0 0 481.000000 519.000000"
 preserveAspectRatio="xMidYMid meet">

<g transform="translate(0.000000,519.000000) scale(0.100000,-0.100000)"
fill="#000000" stroke="none">
<path d="M1880 3509 l-452 -451 59 -60 60 -60 393 392 394 392 239 -241 240
-241 121 0 120 0 -359 360 c-198 198 -360 360 -361 360 -1 0 -205 -203 -454
-451z"/>
<path d="M1395 3450 l-450 -450 453 -452 452 -452 61 60 60 60 -393 392 -393
392 390 390 390 390 -60 60 -60 60 -450 -450z"/>
<path d="M2336 3418 l-58 -61 59 -59 59 -59 117 3 117 3 -117 117 -118 117
-59 -61z"/>
<path d="M1950 2795 l0 -295 40 0 40 0 0 135 c0 74 3 135 6 135 3 0 64 -61
136 -135 l130 -135 62 0 61 1 -31 27 c-17 15 -85 83 -151 152 l-121 125 133
140 133 140 -51 3 -52 4 -120 -126 c-66 -69 -124 -126 -128 -126 -4 0 -7 56
-7 125 l0 125 -40 0 -40 0 0 -295z"/>
<path d="M2520 2785 l0 -295 45 0 45 0 0 233 1 232 25 -30 c13 -16 59 -80 102
-142 42 -62 82 -112 88 -113 6 0 43 44 82 98 39 53 86 117 104 141 l33 44 3
-231 2 -232 40 0 40 0 0 295 0 295 -52 0 -53 -1 -53 -77 c-29 -42 -73 -105
-97 -139 l-43 -62 -55 77 c-30 42 -75 105 -99 139 l-43 62 -57 1 -58 0 0 -295z"/>
<path d="M3433 2942 c-34 -75 -92 -202 -128 -282 -37 -80 -69 -151 -72 -157
-4 -10 9 -13 45 -13 l50 0 25 63 25 62 168 0 168 0 25 -62 26 -63 48 0 c26 0
47 2 47 4 0 3 -16 40 -36 83 -20 43 -62 137 -94 208 -32 72 -74 167 -95 213
l-38 82 -51 0 -51 -1 -62 -137z m151 -32 c15 -36 41 -93 57 -128 16 -34 29
-67 29 -72 0 -6 -50 -10 -125 -10 -69 0 -125 2 -125 5 0 4 51 121 102 238 12
26 24 44 28 40 3 -5 19 -37 34 -73z"/>
<path d="M1067 2559 l-58 -60 273 -267 c150 -147 354 -347 453 -444 l180 -178
185 183 c102 101 268 265 370 365 l185 182 -120 0 -120 0 -120 -118 c-66 -65
-179 -175 -251 -245 l-130 -127 -95 93 c-52 50 -207 202 -345 337 -137 135
-272 266 -299 292 l-50 48 -58 -61z"/>
<path d="M2552 2067 l-272 -272 60 -60 60 -60 318 315 c174 173 323 323 330
333 11 16 5 17 -105 17 l-118 0 -273 -273z"/>
</g>
</svg>
